<svg width="138" height="106" viewBox="0 0 138 106" fill="none" xmlns="http://www.w3.org/2000/svg">
<path d="M12.2544 96.863C4.28136 88.3868 0 78.8738 0 63.4529C0 36.3313 19.0115 12.0169 46.6724 0L53.5813 10.6769C27.7685 24.6632 22.724 42.8044 20.7072 54.2432C24.8632 52.0909 30.3039 51.3344 35.637 51.8289C49.6017 53.1256 60.6077 64.6062 60.6077 78.8738C60.6077 93.8552 48.4803 106 33.5203 106C25.2153 106 17.274 102.199 12.2544 96.863ZM89.6471 96.863C81.674 88.3868 77.3927 78.8738 77.3927 63.4529C77.3927 36.3313 96.4042 12.0169 124.065 0L130.974 10.6769C105.161 24.6632 100.117 42.8044 98.1001 54.2432C102.256 52.0909 107.696 51.3344 113.03 51.8289C126.994 53.1256 138 64.6062 138 78.8738C138 93.8552 125.873 106 110.913 106C102.608 106 94.6664 102.199 89.6471 96.863Z" fill="#2E5700"/>
</svg>
