<svg width="19" height="22" viewBox="0 0 19 22" fill="none" xmlns="http://www.w3.org/2000/svg">
<path d="M12.49 7.75052L12.144 16.7505M7.356 16.7505L7.01 7.75052M16.978 4.54052C17.32 4.59252 17.66 4.64752 18 4.70652M16.978 4.54052L15.91 18.4235C15.8664 18.9887 15.6111 19.5167 15.195 19.9018C14.779 20.2869 14.2329 20.5007 13.666 20.5005H5.834C5.2671 20.5007 4.72102 20.2869 4.30498 19.9018C3.88894 19.5167 3.63359 18.9887 3.59 18.4235L2.522 4.54052M16.978 4.54052C15.8239 4.36604 14.6638 4.23362 13.5 4.14352M2.522 4.54052C2.18 4.59152 1.84 4.64652 1.5 4.70552M2.522 4.54052C3.67613 4.36604 4.83623 4.23362 6 4.14352M13.5 4.14352V3.22752C13.5 2.04752 12.59 1.06352 11.41 1.02652C10.3036 0.99116 9.19638 0.99116 8.09 1.02652C6.91 1.06352 6 2.04852 6 3.22752V4.14352M13.5 4.14352C11.0037 3.9506 8.49628 3.9506 6 4.14352" stroke="#8D2521" stroke-width="1.5" stroke-linecap="round" stroke-linejoin="round"/>
</svg>
