<svg width="51" height="50" viewBox="0 0 51 50" fill="none" xmlns="http://www.w3.org/2000/svg">
<path fill-rule="evenodd" clip-rule="evenodd" d="M39.1395 39.7854C41.1583 37.8885 42.7665 35.5977 43.8648 33.0546C44.9631 30.5115 45.5281 27.7701 45.5249 25C45.5249 13.7813 36.4312 4.6875 25.2124 4.6875C13.9937 4.6875 4.89992 13.7813 4.89992 25C4.89671 27.7701 5.46172 30.5115 6.56002 33.0546C7.65832 35.5977 9.26656 37.8885 11.2853 39.7854C15.0498 43.3414 20.034 45.3195 25.2124 45.3125C30.3909 45.3195 35.375 43.3414 39.1395 39.7854ZM13.0145 37.1083C14.4772 35.2784 16.3333 33.8015 18.445 32.7873C20.5567 31.7731 22.8698 31.2477 25.2124 31.25C27.5551 31.2477 29.8681 31.7731 31.9798 32.7873C34.0916 33.8015 35.9477 35.2784 37.4103 37.1083C35.8146 38.7202 33.9146 39.9992 31.8207 40.8711C29.7268 41.743 27.4806 42.1904 25.2124 42.1875C22.9442 42.1904 20.698 41.743 18.6041 40.8711C16.5102 39.9992 14.6103 38.7202 13.0145 37.1083ZM33.0249 18.75C33.0249 20.822 32.2018 22.8091 30.7367 24.2743C29.2716 25.7394 27.2844 26.5625 25.2124 26.5625C23.1404 26.5625 21.1533 25.7394 19.6881 24.2743C18.223 22.8091 17.3999 20.822 17.3999 18.75C17.3999 16.678 18.223 14.6909 19.6881 13.2257C21.1533 11.7606 23.1404 10.9375 25.2124 10.9375C27.2844 10.9375 29.2716 11.7606 30.7367 13.2257C32.2018 14.6909 33.0249 16.678 33.0249 18.75Z" fill="#42361E"/>
</svg>
