<svg width="103" height="106" viewBox="0 0 103 106" fill="none" xmlns="http://www.w3.org/2000/svg">
<path d="M68.0682 63.9385C69.0293 68.005 69.0576 72.2362 68.1512 76.3152C67.2447 80.3942 65.4269 84.2152 62.834 87.4919C60.241 90.7686 56.9402 93.416 53.1788 95.2358C49.4174 97.0556 45.2929 98.0006 41.1144 98V75.8462M68.0682 63.9385C76.8831 57.5174 84.054 49.1023 88.9951 39.3804C93.9363 29.6585 96.5076 18.9056 96.499 8.00002C85.5942 7.99214 74.8423 10.5638 65.1212 15.5049C55.4002 20.4461 46.9857 27.6166 40.5652 36.4308M68.0682 63.9385C60.0463 69.8059 50.8543 73.8681 41.1144 75.8462M41.1144 75.8462C40.639 75.9431 40.159 76.0354 39.679 76.1231C35.4919 72.8029 31.7008 69.0118 28.3806 64.8246C28.4677 64.3437 28.5554 63.8636 28.6529 63.3846M40.5652 36.4308C36.4984 35.4689 32.2666 35.4399 28.187 36.346C24.1074 37.2521 20.2858 39.0698 17.0086 41.6628C13.7313 44.2559 11.0835 47.557 9.2634 51.3188C7.44333 55.0806 6.49826 59.2056 6.49902 63.3846H28.6529M40.5652 36.4308C34.6985 44.4515 30.6317 53.6464 28.6529 63.3846M18.319 74.4154C15.2829 76.6731 12.9224 79.7184 11.493 83.2215C10.0636 86.7246 9.61984 90.552 10.2098 94.2892C13.9475 94.8787 17.7752 94.4342 21.2783 93.004C24.7814 91.5738 27.8265 89.2123 30.0836 86.1754M72.2682 39.1539C72.2682 40.99 71.5388 42.7509 70.2405 44.0492C68.9422 45.3475 67.1813 46.0769 65.3452 46.0769C63.5091 46.0769 61.7481 45.3475 60.4498 44.0492C59.1515 42.7509 58.4221 40.99 58.4221 39.1539C58.4221 37.3177 59.1515 35.5568 60.4498 34.2585C61.7481 32.9602 63.5091 32.2308 65.3452 32.2308C67.1813 32.2308 68.9422 32.9602 70.2405 34.2585C71.5388 35.5568 72.2682 37.3177 72.2682 39.1539Z" stroke="#668D21" stroke-width="7" stroke-linecap="round" stroke-linejoin="round"/>
</svg>
