<svg width="25" height="26" viewBox="0 0 25 26" fill="none" xmlns="http://www.w3.org/2000/svg">
<path d="M12.5003 13.6103L16.9197 18.0296L15.4466 19.5028L13.542 17.599V23.4167H11.4587V17.5969L9.55404 19.5028L8.08091 18.0296L12.5003 13.6103ZM12.5003 2.58337C16.2435 2.58337 19.3278 5.4038 19.7442 9.03541C22.173 9.69956 23.9587 11.9225 23.9587 14.5625C23.9587 17.5509 21.6707 20.0048 18.7509 20.2684L18.7513 18.1713C20.5176 17.9182 21.8753 16.3989 21.8753 14.5625C21.8753 12.549 20.243 10.9167 18.2295 10.9167C18.012 10.9167 17.799 10.9358 17.5927 10.973C17.6687 10.619 17.7087 10.2517 17.7087 9.87504C17.7087 6.99856 15.3768 4.66671 12.5003 4.66671C9.62385 4.66671 7.29199 6.99856 7.29199 9.87504C7.29199 10.2517 7.33197 10.619 7.40871 10.9722C7.20169 10.9358 6.98865 10.9167 6.77116 10.9167C4.75762 10.9167 3.12533 12.549 3.12533 14.5625C3.12533 16.3337 4.38825 17.8098 6.06268 18.1396L6.25038 18.1715L6.25073 20.2684C3.33049 20.0055 1.04199 17.5513 1.04199 14.5625C1.04199 11.9225 2.82766 9.69956 5.25708 9.03557C5.67284 5.4038 8.75721 2.58337 12.5003 2.58337Z" fill="#F9F9F9"/>
</svg>
