<svg width="74" height="75" viewBox="0 0 74 75" fill="none" xmlns="http://www.w3.org/2000/svg">
<path d="M36.9997 39.3062L50.081 52.3875L45.7206 56.748L40.083 51.1129V68.3333H33.9163V51.1067L28.2787 56.748L23.9182 52.3875L36.9997 39.3062ZM36.9997 6.66663C48.0793 6.66663 57.2091 15.0151 58.4415 25.7646C65.6309 27.7305 70.9163 34.3106 70.9163 42.125C70.9163 50.9704 64.1441 58.2341 55.5015 59.0142L55.5024 52.8069C60.7309 52.0576 64.7497 47.5606 64.7497 42.125C64.7497 36.1649 59.9181 31.3333 53.958 31.3333C53.3142 31.3333 52.6837 31.3897 52.0732 31.4998C52.2979 30.4521 52.4163 29.3648 52.4163 28.25C52.4163 19.7356 45.514 12.8333 36.9997 12.8333C28.4853 12.8333 21.583 19.7356 21.583 28.25C21.583 29.3648 21.7013 30.4521 21.9285 31.4976C21.3157 31.3897 20.6851 31.3333 20.0413 31.3333C14.0813 31.3333 9.24967 36.1649 9.24967 42.125C9.24967 47.3676 12.9879 51.7369 17.9442 52.7131L18.4998 52.8075L18.5009 59.0142C9.85697 58.236 3.08301 50.9717 3.08301 42.125C3.08301 34.3106 8.36858 27.7305 15.5597 25.7651C16.7903 15.0151 25.9201 6.66663 36.9997 6.66663Z" fill="#20180A"/>
</svg>
