<svg width="117" height="120" viewBox="0 0 117 120" fill="none" xmlns="http://www.w3.org/2000/svg">
<path d="M58.3009 105C67.9934 104.999 77.4112 101.686 85.0757 95.5801C92.7402 89.4742 98.2172 80.9215 100.647 71.265M58.3009 105C48.6084 104.999 39.1905 101.686 31.5261 95.5801C23.8616 89.4742 18.3846 80.9215 15.955 71.265M58.3009 105C70.374 105 80.1637 84.85 80.1637 60C80.1637 35.15 70.374 15 58.3009 15M58.3009 105C46.2277 105 36.438 84.85 36.438 60C36.438 35.15 46.2277 15 58.3009 15M100.647 71.265C101.546 67.665 102.027 63.89 102.027 60C102.039 52.2606 100.102 44.6499 96.4054 37.91M100.647 71.265C87.6902 78.6569 73.1151 82.5239 58.3009 82.5C42.9386 82.5 28.5043 78.425 15.955 71.265M15.955 71.265C15.0355 67.5849 14.5719 63.7998 14.5752 60C14.5752 51.975 16.6157 44.435 20.1964 37.91M58.3009 15C66.0561 14.9967 73.6725 17.1168 80.3687 21.1428C87.0649 25.1689 92.5997 30.9558 96.4054 37.91M58.3009 15C50.5457 14.9967 42.9293 17.1168 36.2331 21.1428C29.5369 25.1689 24.002 30.9558 20.1964 37.91M96.4054 37.91C85.827 47.3396 72.2957 52.5207 58.3009 52.5C43.7354 52.5 30.4136 47 20.1964 37.91" stroke="#668D21" stroke-width="7" stroke-linecap="round" stroke-linejoin="round"/>
</svg>
