<svg width="26" height="26" viewBox="0 0 26 26" fill="none" xmlns="http://www.w3.org/2000/svg">
<path d="M13.0003 13.6101L17.4197 18.0295L15.9466 19.5026L14.042 17.5989V23.4166H11.9587V17.5968L10.054 19.5026L8.58091 18.0295L13.0003 13.6101ZM13.0003 2.58325C16.7435 2.58325 19.8278 5.40368 20.2442 9.03528C22.673 9.69944 24.4587 11.9224 24.4587 14.5624C24.4587 17.5508 22.1707 20.0047 19.2509 20.2683L19.2513 18.1712C21.0176 17.918 22.3753 16.3988 22.3753 14.5624C22.3753 12.5489 20.743 10.9166 18.7295 10.9166C18.512 10.9166 18.299 10.9356 18.0927 10.9728C18.1687 10.6189 18.2087 10.2516 18.2087 9.87492C18.2087 6.99844 15.8768 4.66659 13.0003 4.66659C10.1238 4.66659 7.79199 6.99844 7.79199 9.87492C7.79199 10.2516 7.83197 10.6189 7.90871 10.9721C7.70169 10.9356 7.48865 10.9166 7.27116 10.9166C5.25762 10.9166 3.62533 12.5489 3.62533 14.5624C3.62533 16.3336 4.88825 17.8097 6.56268 18.1395L6.75038 18.1714L6.75073 20.2683C3.83049 20.0053 1.54199 17.5512 1.54199 14.5624C1.54199 11.9224 3.32766 9.69944 5.75708 9.03545C6.17284 5.40368 9.25721 2.58325 13.0003 2.58325Z" fill="#F9F9F9"/>
</svg>
